<?xml version="1.0" encoding="UTF-8"?>
<!DOCTYPE svg PUBLIC "-//W3C//DTD SVG 1.1//EN" "http://www.w3.org/Graphics/SVG/1.1/DTD/svg11.dtd">
<svg xmlns="http://www.w3.org/2000/svg" version="1.1" width="80px" height="80px" style="shape-rendering:geometricPrecision; text-rendering:geometricPrecision; image-rendering:optimizeQuality; fill-rule:evenodd; clip-rule:evenodd" xmlns:xlink="http://www.w3.org/1999/xlink">
<g><path style="opacity:1" fill="#265c41" d="M -0.5,-0.5 C 16.1667,-0.5 32.8333,-0.5 49.5,-0.5C 49.5,2.83333 49.5,6.16667 49.5,9.5C 46.1667,9.5 42.8333,9.5 39.5,9.5C 39.5,12.8333 39.5,16.1667 39.5,19.5C 36.1667,19.5 32.8333,19.5 29.5,19.5C 29.5,22.8333 29.5,26.1667 29.5,29.5C 26.1667,29.5 22.8333,29.5 19.5,29.5C 19.5,32.8333 19.5,36.1667 19.5,39.5C 16.1667,39.5 12.8333,39.5 9.5,39.5C 9.5,42.8333 9.5,46.1667 9.5,49.5C 6.16667,49.5 2.83333,49.5 -0.5,49.5C -0.5,32.8333 -0.5,16.1667 -0.5,-0.5 Z"/></g>
<g><path style="opacity:1" fill="#3e8947" d="M 49.5,-0.5 C 56.1667,-0.5 62.8333,-0.5 69.5,-0.5C 69.5,2.83333 69.5,6.16667 69.5,9.5C 66.1667,9.5 62.8333,9.5 59.5,9.5C 59.5,12.8333 59.5,16.1667 59.5,19.5C 56.1667,19.5 52.8333,19.5 49.5,19.5C 49.5,22.8333 49.5,26.1667 49.5,29.5C 46.1667,29.5 42.8333,29.5 39.5,29.5C 39.5,32.8333 39.5,36.1667 39.5,39.5C 36.1667,39.5 32.8333,39.5 29.5,39.5C 29.5,42.8333 29.5,46.1667 29.5,49.5C 26.1667,49.5 22.8333,49.5 19.5,49.5C 19.5,52.8333 19.5,56.1667 19.5,59.5C 16.1667,59.5 12.8333,59.5 9.5,59.5C 9.5,62.8333 9.5,66.1667 9.5,69.5C 6.16667,69.5 2.83333,69.5 -0.5,69.5C -0.5,62.8333 -0.5,56.1667 -0.5,49.5C 2.83333,49.5 6.16667,49.5 9.5,49.5C 9.5,46.1667 9.5,42.8333 9.5,39.5C 12.8333,39.5 16.1667,39.5 19.5,39.5C 19.5,36.1667 19.5,32.8333 19.5,29.5C 22.8333,29.5 26.1667,29.5 29.5,29.5C 29.5,26.1667 29.5,22.8333 29.5,19.5C 32.8333,19.5 36.1667,19.5 39.5,19.5C 39.5,16.1667 39.5,12.8333 39.5,9.5C 42.8333,9.5 46.1667,9.5 49.5,9.5C 49.5,6.16667 49.5,2.83333 49.5,-0.5 Z"/></g>
<g><path style="opacity:1" fill="#63c74c" d="M 69.5,-0.5 C 72.8333,-0.5 76.1667,-0.5 79.5,-0.5C 79.5,2.83333 79.5,6.16667 79.5,9.5C 76.1667,9.5 72.8333,9.5 69.5,9.5C 69.5,6.16667 69.5,2.83333 69.5,-0.5 Z"/></g>
<g><path style="opacity:1" fill="#63c74c" d="M 69.5,9.5 C 69.5,12.8333 69.5,16.1667 69.5,19.5C 66.1667,19.5 62.8333,19.5 59.5,19.5C 59.5,16.1667 59.5,12.8333 59.5,9.5C 62.8333,9.5 66.1667,9.5 69.5,9.5 Z"/></g>
<g><path style="opacity:1" fill="#193c3d" d="M 69.5,9.5 C 72.8333,9.5 76.1667,9.5 79.5,9.5C 79.5,32.8333 79.5,56.1667 79.5,79.5C 56.1667,79.5 32.8333,79.5 9.5,79.5C 9.5,76.1667 9.5,72.8333 9.5,69.5C 12.8333,69.5 16.1667,69.5 19.5,69.5C 19.5,66.1667 19.5,62.8333 19.5,59.5C 22.8333,59.5 26.1667,59.5 29.5,59.5C 29.5,56.1667 29.5,52.8333 29.5,49.5C 32.8333,49.5 36.1667,49.5 39.5,49.5C 39.5,46.1667 39.5,42.8333 39.5,39.5C 42.8333,39.5 46.1667,39.5 49.5,39.5C 49.5,36.1667 49.5,32.8333 49.5,29.5C 52.8333,29.5 56.1667,29.5 59.5,29.5C 59.5,26.1667 59.5,22.8333 59.5,19.5C 62.8333,19.5 66.1667,19.5 69.5,19.5C 69.5,16.1667 69.5,12.8333 69.5,9.5 Z"/></g>
<g><path style="opacity:1" fill="#63c74c" d="M 59.5,19.5 C 59.5,22.8333 59.5,26.1667 59.5,29.5C 56.1667,29.5 52.8333,29.5 49.5,29.5C 49.5,26.1667 49.5,22.8333 49.5,19.5C 52.8333,19.5 56.1667,19.5 59.5,19.5 Z"/></g>
<g><path style="opacity:1" fill="#63c74c" d="M 49.5,29.5 C 49.5,32.8333 49.5,36.1667 49.5,39.5C 46.1667,39.5 42.8333,39.5 39.5,39.5C 39.5,36.1667 39.5,32.8333 39.5,29.5C 42.8333,29.5 46.1667,29.5 49.5,29.5 Z"/></g>
<g><path style="opacity:1" fill="#63c74c" d="M 39.5,39.5 C 39.5,42.8333 39.5,46.1667 39.5,49.5C 36.1667,49.5 32.8333,49.5 29.5,49.5C 29.5,46.1667 29.5,42.8333 29.5,39.5C 32.8333,39.5 36.1667,39.5 39.5,39.5 Z"/></g>
<g><path style="opacity:1" fill="#63c74c" d="M 29.5,49.5 C 29.5,52.8333 29.5,56.1667 29.5,59.5C 26.1667,59.5 22.8333,59.5 19.5,59.5C 19.5,56.1667 19.5,52.8333 19.5,49.5C 22.8333,49.5 26.1667,49.5 29.5,49.5 Z"/></g>
<g><path style="opacity:1" fill="#63c74c" d="M 19.5,59.5 C 19.5,62.8333 19.5,66.1667 19.5,69.5C 16.1667,69.5 12.8333,69.5 9.5,69.5C 9.5,66.1667 9.5,62.8333 9.5,59.5C 12.8333,59.5 16.1667,59.5 19.5,59.5 Z"/></g>
<g><path style="opacity:1" fill="#63c74c" d="M -0.5,69.5 C 2.83333,69.5 6.16667,69.5 9.5,69.5C 9.5,72.8333 9.5,76.1667 9.5,79.5C 6.16667,79.5 2.83333,79.5 -0.5,79.5C -0.5,76.1667 -0.5,72.8333 -0.5,69.5 Z"/></g>
</svg>
